<svg width="75" height="75" viewBox="0 0 75 75" fill="none" xmlns="http://www.w3.org/2000/svg">
<path d="M74.9922 37.3873C74.9922 16.7384 58.2527 0 37.6054 0C16.9571 0 0.218628 16.739 0.218628 37.3873C0.218628 58.0352 16.9576 74.7736 37.6054 74.7736C37.7128 74.7736 37.8185 74.7661 37.9253 74.7661V48.684H28.9237V38.259H37.9253V30.5718C37.9253 21.65 43.374 16.7918 51.3314 16.7918C55.1443 16.7918 58.421 17.0761 59.3762 17.2023V26.5265L53.8557 26.5286C49.5278 26.5286 48.6907 28.5847 48.6907 31.6031V38.259H59.0132L57.6691 48.6846H48.6907V73.1026C63.9259 68.3788 74.9922 54.1759 74.9922 37.3873Z" fill="#94AE98"/>
<path d="M57.6686 48.6837L59.0127 38.2582H48.6901V31.6023C48.6901 28.5839 49.5272 26.5278 53.8552 26.5278L59.3757 26.5257V17.2015C58.421 17.0747 55.1443 16.791 51.3309 16.791C43.3735 16.791 37.9247 21.6492 37.9247 30.571V38.2587H28.9231V48.6843H37.9247V74.7663C41.6696 74.7345 45.2845 74.1579 48.6901 73.1029V48.6843H57.6686V48.6837Z" fill="white"/>
</svg>
