<svg width="75" height="75" viewBox="0 0 75 75" fill="none" xmlns="http://www.w3.org/2000/svg">
<path d="M74.7736 37.3873C74.7736 58.0352 58.0346 74.7736 37.3868 74.7736C16.739 74.7736 0 58.0352 0 37.3873C0 16.7384 16.739 0 37.3868 0C58.0346 0 74.7736 16.7384 74.7736 37.3873Z" fill="#94AE98"/>
<path d="M47.5157 62.6188H27.2579C18.267 62.6188 10.952 55.3033 10.952 46.3124V28.4607C10.952 19.4699 18.267 12.1543 27.2579 12.1543H47.5157C56.5061 12.1543 63.8211 19.4699 63.8211 28.4607V46.3124C63.8211 55.3033 56.5061 62.6188 47.5157 62.6188ZM27.2579 15.7789C20.2649 15.7789 14.5755 21.4677 14.5755 28.4612V46.313C14.5755 53.306 20.2649 58.9947 27.2579 58.9947H47.5157C54.5082 58.9947 60.1975 53.306 60.1975 46.313V28.4612C60.1975 21.4682 54.5082 15.7789 47.5157 15.7789H27.2579Z" fill="white"/>
<path d="M37.3862 51.9013C29.383 51.9013 22.8722 45.3894 22.8722 37.3872C22.8722 29.3829 29.383 22.8721 37.3862 22.8721C45.3895 22.8721 51.9008 29.3829 51.9008 37.3872C51.9014 45.3899 45.39 51.9013 37.3862 51.9013ZM37.3862 26.4956C31.3808 26.4956 26.4957 31.3813 26.4957 37.3872C26.4957 43.3921 31.3808 48.2777 37.3862 48.2777C43.3916 48.2777 48.2773 43.3921 48.2773 37.3872C48.2773 31.3813 43.3916 26.4956 37.3862 26.4956Z" fill="white"/>
<path d="M54.6906 23.3195C54.6906 24.9819 53.3421 26.3303 51.6792 26.3303C50.0158 26.3303 48.6674 24.9819 48.6674 23.3195C48.6674 21.6556 50.0153 20.3071 51.6792 20.3071C53.3427 20.3077 54.6906 21.6556 54.6906 23.3195Z" fill="white"/>
</svg>
