<svg width="269" height="253" viewBox="0 0 269 253" fill="none" xmlns="http://www.w3.org/2000/svg">
<path d="M134.369 252.518C198.134 252.518 249.825 248.179 249.825 242.828C249.825 237.476 198.134 233.138 134.369 233.138C70.6047 233.138 18.9132 237.476 18.9132 242.828C18.9132 248.179 70.6047 252.518 134.369 252.518Z" fill="#ECE7CA"/>
<path d="M14.7628 185.109C14.7628 185.109 18.0524 209.444 46.3407 227.728C50.6862 230.542 55.6239 233.206 61.2315 235.621C65.0683 237.269 69.2081 238.802 73.6887 240.179C73.6953 240.179 73.6953 240.179 73.6953 240.179C88.3412 244.685 106.593 247.55 129.332 247.55C168.416 247.55 195.796 239.078 214.795 228.378C223.402 223.53 230.291 218.219 235.762 213.03C251.001 198.596 255.282 185.109 255.282 185.109C255.282 185.109 255.179 185.039 254.973 184.909C250.892 182.327 206.85 155.443 140.778 155.012C73.7403 154.574 18.6388 183.069 14.9561 185.006C14.8268 185.077 14.7628 185.109 14.7628 185.109Z" fill="#00A1BD"/>
<path d="M14.9622 185.006C30.175 191.714 83.9118 213.635 133.902 212.489C180.885 211.413 234.925 192.544 254.973 184.909C255.179 185.038 255.282 185.109 255.282 185.109C255.282 185.109 251.001 198.596 235.762 213.029C234.738 214.002 233.663 214.98 232.53 215.959C232.163 216.274 231.796 216.596 231.416 216.911C230.933 217.317 230.437 217.729 229.929 218.134C229.62 218.392 229.305 218.636 228.99 218.888C228.584 219.216 228.166 219.538 227.74 219.86C227.328 220.175 226.91 220.491 226.485 220.806C226.459 220.826 226.433 220.845 226.408 220.864C225.989 221.18 225.558 221.489 225.127 221.798C224.766 222.062 224.393 222.32 224.019 222.577C223.787 222.744 223.556 222.905 223.317 223.066C222.931 223.336 222.545 223.6 222.146 223.865C221.27 224.444 220.376 225.03 219.455 225.603C218.959 225.918 218.457 226.227 217.942 226.537C216.918 227.155 215.869 227.773 214.794 228.378C195.796 239.077 168.416 247.55 129.331 247.55C106.592 247.55 88.3415 244.685 73.6949 240.179C73.6949 240.179 73.6949 240.179 73.6884 240.179C69.2077 238.801 65.0679 237.269 61.2312 235.621C60.0852 235.126 58.9647 234.624 57.8703 234.102C57.6255 233.992 57.3872 233.877 57.1495 233.76C53.8272 232.17 50.7629 230.484 47.9368 228.739C47.4347 228.424 46.9326 228.108 46.4435 227.793C46.4115 227.774 46.3723 227.754 46.3403 227.728C18.0586 209.445 14.7625 185.109 14.7625 185.109C14.7625 185.109 14.8271 185.077 14.9622 185.006ZM37.4888 214.13C39.2851 216.39 41.1323 218.676 43.1154 220.916C43.1219 220.922 43.1219 220.922 43.135 220.929C44.0811 221.592 74.7768 242.779 132.435 242.779C190.549 242.779 227.271 216.487 227.844 216.075L227.85 216.068L227.863 216.062C228.899 214.664 229.917 213.146 230.902 211.484C233.213 207.583 230.915 201.873 226.756 203.688C210.848 210.641 178.504 222.731 142.819 224.418C144.532 226.118 147.081 229.427 147.023 234.03C147.023 234.03 141.673 238.054 133.033 238.06H133.02C124.374 238.054 119.043 234.03 119.043 234.03C118.992 229.343 121.625 226.002 123.33 224.328C87.3039 222.538 57.6901 212.715 40.8613 205.787C36.4199 203.958 34.5015 210.371 37.4888 214.13Z" fill="#007D9B"/>
<path d="M129.789 203.52C129.789 204.2 131.236 204.752 133.022 204.752C134.807 204.752 136.255 204.2 136.255 203.52C136.255 202.839 134.808 202.288 133.022 202.288C131.236 202.288 129.789 202.839 129.789 203.52Z" fill="#007D9B"/>
<path d="M244.356 183.003C244.272 183.544 245.236 184.142 246.508 184.339C247.781 184.536 248.879 184.257 248.964 183.716C249.047 183.175 248.084 182.577 246.811 182.38C245.539 182.184 244.439 182.462 244.356 183.003Z" fill="#007D9B"/>
<path d="M26.3198 183.003C26.4034 183.544 25.4396 184.142 24.167 184.339C22.8943 184.536 21.7954 184.257 21.7118 183.716C21.6283 183.175 22.592 182.577 23.864 182.38C25.1373 182.184 26.2362 182.462 26.3198 183.003Z" fill="#007D9B"/>
<path d="M132.441 235.932C148.352 235.932 164.154 234.096 179.411 230.475C191.616 227.578 203.502 223.539 214.738 218.469C233.879 209.833 244.651 201.067 244.757 200.98L244.051 200.12C243.945 200.207 233.26 208.896 214.24 217.473C196.693 225.386 168.257 234.819 132.44 234.819C96.6267 234.819 69.7664 226.513 53.5397 219.544C35.9567 211.993 26.7238 204.344 26.6324 204.267L25.9174 205.12C26.0095 205.197 35.3351 212.931 53.0513 220.546C63.4451 225.013 74.661 228.573 86.3863 231.125C101.039 234.314 116.534 235.932 132.441 235.932Z" fill="#007D9B"/>
<path d="M121.359 232.715C121.359 232.715 121.739 233.154 122.738 233.688C123.118 233.892 123.59 234.111 124.165 234.325C125.096 234.672 126.301 235.005 127.833 235.249C128.35 235.329 128.907 235.402 129.503 235.46C130.391 235.545 131.367 235.601 132.441 235.616C132.632 235.618 132.825 235.62 133.022 235.62C133.228 235.62 133.43 235.618 133.63 235.616C135.002 235.595 136.218 235.509 137.289 235.376C137.882 235.305 138.43 235.219 138.938 235.122C140.535 234.82 141.732 234.417 142.607 234.029C143.193 233.769 143.637 233.514 143.959 233.299C144.475 232.958 144.685 232.716 144.685 232.716C144.685 230.093 142.671 226.277 138.336 222.411C137.23 221.426 136.527 220.097 136.085 218.752C135.287 216.329 135.327 213.847 135.355 213.183C135.361 213.071 135.364 213.011 135.364 213.011H130.68C130.68 213.011 131.016 217.661 128.96 220.916C128.616 221.463 128.202 221.97 127.709 222.411C123.373 226.275 121.359 230.092 121.359 232.715Z" fill="#FFCD56"/>
<path opacity="0.5" d="M139.314 225.069C139.314 225.069 142.349 228.657 142.607 234.028C143.194 233.767 143.638 233.513 143.96 233.297C143.4 230.886 142.129 227.342 139.314 225.069Z" fill="#FFCD56"/>
<path opacity="0.5" d="M137.29 235.375C137.882 235.304 138.431 235.218 138.939 235.121C138.725 232.918 138.038 228.775 135.806 225.072C135.872 225.215 137.784 229.371 137.29 235.375Z" fill="#FFCD56"/>
<path opacity="0.5" d="M132.441 235.615C132.633 235.617 132.825 235.619 133.023 235.619C133.229 235.619 133.431 235.617 133.631 235.615C133.612 230.208 133.023 224.799 133.023 224.799C132.458 229.646 132.405 233.479 132.441 235.615Z" fill="#FFCD56"/>
<path opacity="0.5" d="M122.737 233.688C123.118 233.892 123.59 234.111 124.165 234.325C124.322 228.788 127.469 225.069 127.469 225.069C124.499 227.467 123.249 231.283 122.737 233.688Z" fill="#FFCD56"/>
<path opacity="0.5" d="M129.504 235.46C128.982 229.41 130.911 225.215 130.978 225.072C128.703 228.848 128.032 233.08 127.834 235.248C128.351 235.328 128.907 235.401 129.504 235.46Z" fill="#FFCD56"/>
<path opacity="0.5" d="M136.085 218.751C135.287 216.329 135.327 213.846 135.355 213.183C134.577 213.104 133.753 213.047 132.925 213.01H130.68C130.68 213.01 131.016 217.661 128.96 220.915C131.963 220.971 134.33 219.971 136.085 218.751Z" fill="#FFCD56"/>
<path d="M133.022 217.443C130.314 217.443 128.12 215.248 128.12 212.541C128.12 209.834 130.314 207.639 133.022 207.639C135.729 207.639 137.923 209.834 137.923 212.541C137.923 215.248 135.729 217.443 133.022 217.443Z" fill="#FFCD56"/>
<path d="M245.782 210.87C245.782 210.87 246.225 211.245 247.294 211.618C247.701 211.761 248.202 211.906 248.803 212.028C249.776 212.227 251.018 212.371 252.57 212.375C253.093 212.375 253.654 212.362 254.252 212.328C255.143 212.274 256.115 212.179 257.178 212.029C257.368 212.001 257.558 211.973 257.753 211.943C257.957 211.911 258.157 211.878 258.354 211.846C259.707 211.614 260.894 211.342 261.933 211.045C262.507 210.884 263.036 210.714 263.523 210.539C265.054 209.995 266.175 209.413 266.979 208.895C267.519 208.548 267.918 208.227 268.204 207.964C268.66 207.548 268.831 207.277 268.831 207.277C268.426 204.685 265.848 201.225 260.97 198.073C259.726 197.27 258.827 196.066 258.183 194.805C257.021 192.534 256.678 190.075 256.603 189.415C256.591 189.303 256.586 189.243 256.586 189.243L251.957 189.965C251.957 189.965 253.005 194.508 251.475 198.04C251.219 198.634 250.888 199.199 250.469 199.71C246.779 204.197 245.377 208.279 245.782 210.87Z" fill="#FFCD56"/>
<path opacity="0.5" d="M262.344 200.55C262.344 200.55 265.896 203.627 266.979 208.895C267.518 208.548 267.918 208.227 268.203 207.965C267.278 205.668 265.477 202.362 262.344 200.55Z" fill="#FFCD56"/>
<path opacity="0.5" d="M261.932 211.045C262.506 210.884 263.035 210.714 263.522 210.539C262.972 208.395 261.654 204.408 258.879 201.094C258.965 201.224 261.496 205.035 261.932 211.045Z" fill="#FFCD56"/>
<path opacity="0.5" d="M257.179 212.029C257.368 212.001 257.559 211.973 257.753 211.943C257.957 211.911 258.157 211.879 258.355 211.846C257.503 206.506 256.087 201.252 256.087 201.252C256.276 206.129 256.814 209.924 257.179 212.029Z" fill="#FFCD56"/>
<path opacity="0.5" d="M247.294 211.618C247.701 211.761 248.202 211.905 248.803 212.028C248.106 206.533 250.643 202.374 250.643 202.374C248.075 205.201 247.429 209.164 247.294 211.618Z" fill="#FFCD56"/>
<path opacity="0.5" d="M254.251 212.328C252.805 206.43 254.064 201.988 254.108 201.837C252.443 205.918 252.431 210.203 252.569 212.376C253.093 212.376 253.654 212.363 254.251 212.328Z" fill="#FFCD56"/>
<path opacity="0.5" d="M258.182 194.805C257.02 192.534 256.676 190.076 256.602 189.416C255.822 189.457 254.998 189.529 254.174 189.619L251.956 189.965C251.956 189.965 253.004 194.508 251.474 198.04C254.45 197.633 256.635 196.28 258.182 194.805Z" fill="#FFCD56"/>
<path d="M249.354 189.897C249.771 192.571 252.277 194.402 254.953 193.985C257.627 193.568 259.458 191.062 259.041 188.386C258.623 185.712 256.117 183.881 253.442 184.298C250.768 184.716 248.937 187.222 249.354 189.897Z" fill="#FFCD56"/>
<path d="M23.1548 210.87C23.1548 210.87 22.7114 211.245 21.6425 211.618C21.2351 211.761 20.7349 211.906 20.1335 212.028C19.1599 212.227 17.918 212.371 16.3666 212.375C15.8436 212.375 15.282 212.362 14.6845 212.328C13.7939 212.274 12.821 212.179 11.758 212.029C11.5686 212.001 11.3779 211.973 11.1833 211.943C10.9796 211.911 10.7798 211.878 10.582 211.846C9.23034 211.614 8.04194 211.342 7.00373 211.045C6.42978 210.884 5.90088 210.714 5.41377 210.539C3.88323 209.995 2.76209 209.413 1.95699 208.895C1.41764 208.548 1.01803 208.227 0.732683 207.964C0.276262 207.548 0.105846 207.277 0.105846 207.277C0.510029 204.685 3.08792 201.225 7.96686 198.073C9.21075 197.27 10.1099 196.066 10.7537 194.805C11.9153 192.534 12.2588 190.075 12.3332 189.415C12.345 189.303 12.3502 189.243 12.3502 189.243L16.9784 189.965C16.9784 189.965 15.9304 194.508 17.4603 198.04C17.7169 198.634 18.0473 199.199 18.4665 199.71C22.1564 204.197 23.559 208.279 23.1548 210.87Z" fill="#FFCD56"/>
<path opacity="0.5" d="M6.59241 200.55C6.59241 200.55 3.04093 203.627 1.95767 208.895C1.41832 208.548 1.01871 208.227 0.733363 207.965C1.65861 205.668 3.45949 202.362 6.59241 200.55Z" fill="#FFCD56"/>
<path opacity="0.5" d="M7.00386 211.045C6.42991 210.884 5.90101 210.714 5.4139 210.539C5.96435 208.395 7.28204 204.408 10.0571 201.094C9.97028 201.224 7.44004 205.035 7.00386 211.045Z" fill="#FFCD56"/>
<path opacity="0.5" d="M11.7582 212.029C11.5689 212.001 11.3782 211.973 11.1836 211.943C10.9799 211.911 10.7801 211.879 10.5822 211.846C11.4337 206.506 12.85 201.252 12.85 201.252C12.6613 206.129 12.1226 209.924 11.7582 212.029Z" fill="#FFCD56"/>
<path opacity="0.5" d="M21.6427 211.618C21.2353 211.761 20.7351 211.905 20.1337 212.028C20.8311 206.533 18.2937 202.374 18.2937 202.374C20.8605 205.201 21.5075 209.164 21.6427 211.618Z" fill="#FFCD56"/>
<path opacity="0.5" d="M14.6847 212.328C16.131 206.43 14.8728 201.988 14.8277 201.837C16.4934 205.918 16.5045 210.203 16.3668 212.376C15.8437 212.376 15.2822 212.363 14.6847 212.328Z" fill="#FFCD56"/>
<path opacity="0.5" d="M10.7553 194.805C11.9169 192.534 12.2604 190.076 12.3348 189.416C13.1151 189.457 13.9385 189.529 14.7625 189.619L16.9807 189.965C16.9807 189.965 15.9326 194.508 17.4625 198.04C14.4857 197.633 12.3022 196.28 10.7553 194.805Z" fill="#FFCD56"/>
<path d="M19.5818 189.897C19.1646 192.571 16.6585 194.402 13.9834 193.985C11.3082 193.568 9.47791 191.062 9.89515 188.386C10.3124 185.712 12.8185 183.881 15.4937 184.298C18.1688 184.716 19.9991 187.222 19.5818 189.897Z" fill="#FFCD56"/>
<path d="M179.516 165.843C184.378 166.058 187.398 166.41 191.088 167.807C193.906 168.875 195.51 170.034 196.778 172.177C199.763 177.22 189.537 179.68 180.124 177.614C170.711 175.547 166.592 172.408 157.536 173.918C142.922 176.355 158.638 190.35 126.362 193.317C93.1595 196.368 41.2059 190.216 54.3246 178.084C61.6737 171.287 127.067 178.039 139.317 172.257C150.941 166.77 162.466 165.087 179.516 165.843Z" fill="#007D9B"/>
<path d="M133.902 213.211C145.103 213.211 158.472 211.767 173.636 208.921C185.753 206.646 199.041 203.475 213.13 199.496C237.114 192.721 255.355 185.856 255.537 185.787C255.911 185.646 256.1 185.228 255.959 184.854C255.818 184.479 255.4 184.291 255.025 184.432C254.844 184.5 236.65 191.347 212.724 198.105C190.664 204.335 159.083 211.763 133.903 211.763C102.9 211.763 72.2471 204.341 51.9923 198.113C30.0299 191.362 15.2161 184.521 15.0692 184.453C14.7068 184.283 14.2758 184.442 14.1074 184.805C13.9389 185.167 14.0963 185.598 14.4587 185.766C14.6063 185.835 29.4912 192.71 51.5417 199.49C64.4919 203.473 77.3494 206.645 89.7557 208.922C105.272 211.768 120.125 213.211 133.902 213.211Z" fill="#FFCD56"/>
<path d="M223.082 36.0313C223.082 36.0313 229.706 34.3225 229.053 29.2203C228.64 25.9921 224.854 26.5144 224.854 26.5144C224.854 26.5144 225.881 20.9159 220.397 21.5271C218.737 21.7119 217.227 23.6087 215.994 25.8869C213.348 30.7724 217.31 36.6464 222.834 36.0588C222.916 36.0496 222.999 36.0405 223.082 36.0313Z" fill="url(#paint0_linear_290_1892)"/>
<path d="M213.57 33.8132C213.57 33.8132 204.899 35.5802 207.444 45.846C209.988 56.1119 227.755 89.509 207.496 96.8652C207.496 96.8652 211.356 102.329 217.893 104.321C217.893 104.321 225.954 97.9472 224.009 81.6506C222.063 65.3539 204.76 45.5522 214.667 37.9269C214.667 37.9269 216.481 36.0163 213.57 33.8132Z" fill="url(#paint1_linear_290_1892)"/>
<path d="M216.836 48.5727C216.836 48.5727 226.196 45.6115 229.262 56.9385C232.329 68.2647 233.104 110.227 256.714 106.439C256.714 106.439 255.916 113.818 250.652 119.273C250.652 119.273 239.398 117.439 232.5 100.587C225.603 83.7354 231.706 55.2075 217.989 53.1532C217.989 53.1532 215.202 52.2783 216.836 48.5727Z" fill="url(#paint2_linear_290_1892)"/>
<path d="M224.359 33.0557C227.533 30.9283 230.715 28.7612 233.894 26.816C237.071 24.8728 240.287 23.0752 243.447 21.8189C245.022 21.2025 246.578 20.7173 247.995 20.5064C249.413 20.2766 250.641 20.3412 251.528 20.6337C251.993 20.778 252.345 20.9478 252.766 21.2514C253.267 21.6073 253.696 21.9638 254.022 22.3386C254.687 23.0902 254.954 23.811 255.05 24.6952C255.083 25.1418 255.052 25.6361 254.939 26.1695C254.815 26.703 254.616 27.2698 254.348 27.8496C253.81 29.0145 252.935 30.1729 251.894 31.2555C249.786 33.4253 246.919 35.1563 243.792 36.3936C240.649 37.629 237.202 38.3571 233.642 38.662C230.077 38.9578 226.399 38.8246 222.665 38.4139L221.587 42.6333C225.363 44.143 229.419 45.11 233.61 45.4541C237.799 45.793 242.135 45.4776 246.37 44.3075C248.487 43.7284 250.576 42.9344 252.578 41.8805C254.59 40.8455 256.507 39.5383 258.266 37.9451C260.029 36.3571 261.604 34.4387 262.823 32.1422C264.037 29.8614 264.829 27.087 264.669 24.0905C264.595 22.6024 264.24 21.0843 263.645 19.685C263.056 18.2778 262.211 17.0144 261.257 15.9357C260.297 14.8589 259.232 13.9565 258.121 13.237C256.942 12.4462 255.51 11.7939 254.106 11.4257C252.693 11.0385 251.262 10.9066 249.925 10.9438C248.583 10.983 247.313 11.1586 246.122 11.4498C243.739 12.029 241.643 12.9301 239.718 13.9742C235.88 16.0741 232.654 18.6814 229.729 21.508C226.819 24.3641 224.212 27.3828 221.99 30.8232L224.359 33.0557Z" fill="url(#paint3_linear_290_1892)"/>
<path d="M223.535 30.6702C223.592 28.7381 223.464 26.9281 223.211 25.0737C222.96 23.2304 222.571 21.3995 222.058 19.5784C221.015 15.9472 219.457 12.3324 216.965 9.00755C215.726 7.34445 214.208 5.78845 212.41 4.44139C210.6 3.12501 208.487 2.02608 206.208 1.43254C205.068 1.12695 203.917 0.930407 202.769 0.83834C201.603 0.753455 200.374 0.766514 199.085 0.956526C197.8 1.15046 196.449 1.51024 195.129 2.17626C193.813 2.83249 192.554 3.79495 191.566 4.98269C190.562 6.16129 189.858 7.53186 189.417 8.88741C188.97 10.2475 188.817 11.5939 188.801 12.8646C188.787 15.4138 189.355 17.6782 190.166 19.7083C190.98 21.7384 192.023 23.5673 193.22 25.2167C194.404 26.8765 195.734 28.3698 197.147 29.728C199.973 32.4495 203.134 34.6357 206.441 36.4052C209.753 38.1662 213.215 39.5146 216.754 40.4372L218.435 36.4196C215.505 34.6291 212.698 32.7688 210.112 30.7264C207.54 28.6748 205.162 26.4697 203.192 24.0629C202.199 22.868 201.322 21.6169 200.567 20.3534C199.82 19.0841 199.216 17.7892 198.804 16.531C198.406 15.2753 198.202 14.0504 198.271 13.0853C198.34 12.1039 198.611 11.5058 198.892 11.2237C199.03 11.0637 199.205 10.9553 199.454 10.8228C199.699 10.6909 200.063 10.5831 200.508 10.5139C200.955 10.446 201.49 10.4291 202.073 10.4715C202.673 10.5094 203.262 10.5838 203.821 10.7164C206.058 11.2244 208.238 12.5864 210.274 14.6518C212.302 16.7099 214.116 19.3466 215.76 22.1837C217.405 25.0149 218.897 28.1335 220.323 31.2194L223.535 30.6702Z" fill="url(#paint4_linear_290_1892)"/>
<path d="M51.2765 174.825C53.1198 183.049 60.3507 182.907 72.9705 186.027C85.5897 189.146 134.224 191.557 139.895 182.482C145.567 173.407 150.388 136.4 158.469 119.527C166.551 102.654 182.573 91.5947 182.573 91.5947C184.275 98.1171 187.253 174.683 187.253 174.683C190.23 176.668 193.917 173.974 193.917 173.974C193.917 173.974 195.334 157.81 195.902 148.594C196.469 139.378 203.983 107.9 207.245 94.2888C209.508 84.843 216.96 73.8256 221.926 62.897C221.993 62.7494 222.059 62.6018 222.126 62.4543C223.764 58.8003 225.112 55.1594 225.884 51.5916C226.098 50.5991 226.268 49.6125 226.387 48.6324C227.709 37.7514 222.759 27.3811 219.854 22.3859C218.527 20.1044 216.132 18.6425 213.495 18.5321C212.882 18.5066 212.265 18.5106 211.643 18.5478C211.641 18.5478 211.64 18.5478 211.64 18.5478C188.927 19.8269 160.098 60.9655 139.883 96.9261C119.718 132.796 109.269 134.983 103.456 135.691C97.6427 136.4 88.7102 134.699 84.7395 137.109C80.7695 139.519 68.8588 140.229 62.053 142.781C55.2472 145.333 55.5306 155.258 55.5306 155.258C55.5306 155.258 50.9931 155.825 49.7172 156.96C48.4407 158.094 49.4332 166.601 51.2765 174.825Z" fill="#F77CA0"/>
<path d="M73.0966 140.63C74.7382 143.9 79.5793 147.821 87.3051 147.724C92.3199 147.659 95.4939 144.84 97.11 142.87C90.4015 141.434 85.7471 140.565 84.4464 139.213C83.8862 138.628 83.9508 137.958 84.7364 137.108C82.8819 138.241 79.29 138.995 75.2984 139.742L73.0966 140.63Z" fill="url(#paint5_linear_290_1892)"/>
<path d="M70.4026 143.316C70.4026 143.316 74.4333 147.141 74.9178 153.239C75.4023 159.337 74.3824 164.913 74.3824 164.913L82.9486 165.792C82.9486 165.792 83.5663 148.316 70.4026 143.316Z" fill="url(#paint6_linear_290_1892)"/>
<path d="M196.185 55.5796C196.185 55.5796 181.865 70.4671 177.327 76.7062C172.79 82.9452 163.715 94.997 160.454 102.654C160.454 102.654 173.215 86.7729 181.297 79.9671C189.379 73.1619 196.185 55.5796 196.185 55.5796Z" fill="url(#paint7_linear_290_1892)"/>
<path d="M144.527 131.438C144.527 131.438 138.099 148.641 124.015 149.209C119.023 149.41 118.156 149.715 113.52 148.447C107.175 146.71 107.632 146.303 98.3937 144.533C98.3937 144.533 105.393 156.77 123.731 155.26C138.617 154.035 145.519 138.262 144.527 131.438Z" fill="url(#paint8_linear_290_1892)"/>
<path d="M218.021 22.6846C218.021 22.6846 226.606 35.115 223.719 50.7117C223.719 50.7117 205.874 61.9602 194.669 73.4929C194.669 73.4929 195.499 66.5715 201.243 57.3288C204.268 52.4603 206.961 46.0802 209.172 37.1477C209.172 37.1477 216.323 29.6321 218.021 22.6846Z" fill="url(#paint9_linear_290_1892)"/>
<path d="M84.4464 139.212C86.498 141.36 96.9696 142.28 110.686 146.183C128.126 151.146 135.925 143.206 140.32 135.408C144.716 127.609 162.439 91.4528 175.2 76.5646C187.961 61.6764 216.178 25.804 216.319 22.1173C216.38 20.5365 215.528 19.6544 214.533 19.164C213.245 18.5261 211.719 18.5456 211.642 18.5469C211.64 18.5469 211.639 18.5469 211.639 18.5469C188.926 19.8261 160.097 60.9647 139.882 96.9253C119.717 132.795 109.268 134.982 103.455 135.69C97.6415 136.399 88.7089 134.698 84.7383 137.109C83.9515 137.957 83.8881 138.63 84.4464 139.212Z" fill="url(#paint10_linear_290_1892)"/>
<path d="M84.4464 139.211C88.3544 136.799 99.6304 141.246 110.686 139.236C123.164 136.967 142.432 100.668 150.199 85.7808C157.965 70.8926 186.26 30.5304 201.148 23.7715C212.819 18.4728 216.319 22.1176 216.319 22.1176C216.302 20.9507 216.007 19.9151 214.533 19.1642C213.245 18.5263 211.719 18.5459 211.642 18.5472C211.64 18.5472 211.639 18.5472 211.639 18.5472C188.926 19.8263 160.097 60.9649 139.882 96.9255C119.717 132.795 109.268 134.982 103.455 135.691C97.6415 136.4 88.709 134.698 84.7383 137.109C83.9515 137.956 83.8882 138.63 84.4464 139.211Z" fill="#D12567"/>
<path d="M182.574 91.594C182.677 91.9897 182.785 92.642 182.897 93.5196C184.625 107.117 187.253 174.683 187.253 174.683C190.23 176.668 193.917 173.974 193.917 173.974C193.917 173.974 195.335 157.81 195.902 148.594C196.469 139.377 203.984 107.9 207.245 94.2881C208.714 88.1588 212.366 81.3686 216.107 74.3708C218.21 70.4374 220.341 66.438 222.126 62.4536C216.636 65.1549 209.443 69.0864 202.992 73.8707C190.372 83.2283 182.574 91.594 182.574 91.594Z" fill="#F7437A"/>
<path d="M211.766 79.1606C211.766 79.1606 208.018 85.3076 205.401 92.6815C203.657 97.5977 197.272 130.87 195.097 145.617L192.923 171.989C192.923 171.989 190.655 174.352 188.102 172.462L185.181 93.5199C185.181 93.5199 200.281 83.939 211.766 79.1606Z" fill="url(#paint11_linear_290_1892)"/>
<path d="M182.573 91.594C182.677 91.9897 182.785 92.642 182.897 93.5196C193.285 85.3837 206.98 78.5067 216.106 74.3708C218.209 70.4374 220.34 66.438 222.125 62.4536C216.635 65.1549 209.442 69.0864 202.991 73.8707C190.372 83.2283 182.573 91.594 182.573 91.594Z" fill="#D12567"/>
<path d="M51.2766 174.825C53.1199 183.049 60.3508 182.907 72.9706 186.026C85.5898 189.146 134.224 191.556 139.895 182.481C145.567 173.407 150.388 136.4 158.47 119.527C166.551 102.654 182.574 91.5943 182.574 91.5943C182.574 91.5943 202.041 70.7557 221.926 62.896C221.992 62.7484 222.059 62.6008 222.126 62.4533C223.763 58.7993 225.111 55.1584 225.883 51.5906C218.645 56.9769 204.961 67.1422 197.092 72.8915C186.032 80.9732 161.362 103.517 154.77 120.106C148.178 136.694 143.057 154.559 138.066 160.726C133.076 166.894 109.202 169.363 91.819 167.957C83.4036 167.277 77.1705 166.581 72.4743 165.773C72.4743 165.773 72.4744 165.773 72.4731 165.773C59.9786 163.63 58.371 160.71 55.5307 155.257C55.5307 155.257 50.9932 155.824 49.7173 156.958C49.5697 157.089 49.4522 157.318 49.3628 157.636C48.6817 160.057 49.6455 167.552 51.2766 174.825Z" fill="#F7437A"/>
<path opacity="0.5" d="M86.5815 169.863C86.5815 169.863 59.6416 169.579 50.5667 161.497C50.5667 161.497 51.5592 174.399 55.1041 178.512C58.6491 182.623 83.8874 186.736 99.7681 186.31C99.7681 186.31 88.8505 184.183 86.5815 169.863Z" fill="url(#paint12_linear_290_1892)"/>
<path d="M145.199 155.258C145.199 155.258 142.445 176.802 139.031 181.144C135.617 185.485 110.32 186.34 110.32 186.34C110.32 186.34 134.769 182.151 137.873 175.413C141.664 167.185 145.199 155.258 145.199 155.258Z" fill="url(#paint13_linear_290_1892)"/>
<path d="M49.3624 157.637C51.7444 164.475 72.2356 165.76 72.4727 165.774C59.9782 163.63 58.3706 160.711 55.5302 155.258C55.5302 155.258 50.9928 155.824 49.7169 156.959C49.5693 157.09 49.4518 157.32 49.3624 157.637Z" fill="#F7437A"/>
<path d="M56.5938 160.008C56.5938 160.008 56.5938 160.008 56.5951 160.009C56.7127 160.064 63.747 163.358 67.9116 164.96C69.7464 165.388 71.6133 165.775 72.4745 165.775C72.4745 165.775 74.6854 156.786 72.214 150.071C72.214 150.071 72.214 150.071 72.2127 150.07C71.3181 147.638 69.8091 145.494 67.3618 144.165C63.7829 142.224 59.3493 143.804 57.8012 147.57C56.7407 150.147 56.0434 154.071 56.5938 160.008Z" fill="url(#paint14_linear_290_1892)"/>
<path d="M56.5935 160.008C56.5935 160.008 56.5935 160.008 56.5948 160.009C56.6 160.476 63.6285 163.791 67.9113 164.96C67.9113 164.96 67.4914 161.389 67.7238 156.392C68.0072 150.295 72.1078 149.991 72.2117 150.07C71.3171 147.638 69.8081 145.494 67.3608 144.165C63.7819 142.224 59.3483 143.804 57.8001 147.57C56.7404 150.147 56.043 154.071 56.5935 160.008Z" fill="url(#paint15_linear_290_1892)"/>
<path d="M87.6551 128.768C87.6551 128.768 90.8011 129.511 90.489 133.587L86.914 134.396C86.914 134.396 88.9245 130.957 87.6551 128.768Z" fill="#FFAA31"/>
<path d="M73.0967 140.63C73.0967 140.63 73.1332 140.691 73.2188 140.791C73.2978 140.892 73.412 141.039 73.5694 141.226C73.6197 141.286 73.6765 141.353 73.7405 141.419C73.7549 141.446 73.7764 141.466 73.8045 141.492C75.6478 143.498 81.1784 148.047 91.2444 144.766C99.7414 141.989 97.2791 133.249 91.1622 133.236C91.1556 133.236 91.1484 133.236 91.1484 133.236C91.0107 133.227 90.867 133.232 90.7234 133.244C90.5386 133.263 90.361 133.29 90.1906 133.322C90.013 133.349 89.8425 133.382 89.6649 133.415C89.3443 133.474 89.0172 133.546 88.6554 133.62H88.6489C88.6215 133.627 87.9254 133.466 87.898 133.474C87.898 133.474 90.7469 130.188 87.6525 128.765C84.0775 127.125 80.53 129.904 77.83 133.185C77.83 133.185 77.83 133.185 77.8235 133.192C77.8169 133.199 77.8104 133.213 77.8039 133.22C76.0676 135.329 74.6879 137.646 73.8783 139.115C73.3722 140.038 73.0967 140.63 73.0967 140.63Z" fill="#FFCD56"/>
<path d="M73.0967 140.631C73.0967 140.631 73.1332 140.691 73.2188 140.791C73.2978 140.892 73.412 141.039 73.5694 141.226C73.6197 141.286 73.6765 141.353 73.7405 141.419C73.7549 141.446 73.7764 141.466 73.8045 141.493C75.6478 143.498 81.1784 148.047 91.2444 144.766C99.7414 141.989 97.2791 133.249 91.1622 133.236C91.3966 133.269 94.5413 133.709 94.7136 137.286C94.8965 140.994 89.4997 143.809 83.5441 143.77C77.7314 143.733 74.2015 141.101 73.8776 139.114C73.3722 140.038 73.0967 140.631 73.0967 140.631Z" fill="#FFAA31"/>
<path d="M74.9033 138.368C74.904 138.382 74.904 138.388 74.904 138.388C74.9856 138.997 75.2925 139.57 75.8312 140.074C76.2772 140.492 76.8864 140.864 77.6516 141.161C78.7499 141.585 80.1734 141.868 81.9331 141.948C82.4764 141.971 83.0529 141.98 83.6569 141.967C84.3151 141.945 85.0144 141.909 85.7529 141.836C88.2512 141.603 90.0187 140.88 91.1967 139.962C92.8363 138.672 93.3306 137.002 93.0759 135.713C93.0348 135.509 92.9734 135.312 92.899 135.129C92.6534 134.546 92.2623 134.127 91.7994 133.826C90.3753 132.885 88.3432 133.088 88.3432 133.088C89.7053 131.493 90.4562 128.221 85.0477 128.048C83.5015 127.996 82.0121 128.635 80.6709 129.613C79.7659 130.267 78.9341 131.077 78.1936 131.945C76.633 133.76 75.4923 135.816 75.0405 137.128C74.8968 137.551 74.8491 137.965 74.9033 138.368Z" fill="url(#paint16_linear_290_1892)"/>
<path d="M75.8311 140.074C76.2771 140.492 76.8863 140.864 77.6516 141.161C78.7499 141.585 80.1733 141.868 81.9331 141.948C82.4763 141.971 83.0529 141.98 83.6569 141.967L82.8805 136.7L75.8311 140.074Z" fill="url(#paint17_linear_290_1892)"/>
<path d="M79.1412 132.36L82.88 136.7L91.7988 133.827C90.3747 132.885 88.3427 133.089 88.3427 133.089C89.7048 131.493 90.4557 128.222 85.0472 128.049C84.7103 128.039 84.3681 128.057 84.0403 128.116C82.8519 128.292 81.7164 128.851 80.671 129.613L79.1412 132.36Z" fill="url(#paint18_linear_290_1892)"/>
<path d="M79.1412 132.36L82.8801 136.7L84.0404 128.115C82.852 128.292 81.7165 128.851 80.6711 129.613L79.1412 132.36Z" fill="url(#paint19_linear_290_1892)"/>
<path opacity="0.5" d="M82.8799 136.699L91.1967 139.962C92.8363 138.673 93.3306 137.002 93.0759 135.713C93.0348 135.509 92.9734 135.312 92.899 135.129C92.6534 134.547 92.2623 134.127 91.7994 133.826L82.8799 136.699Z" fill="#F77CA0"/>
<path opacity="0.5" d="M74.9034 138.368C74.9041 138.381 74.9041 138.388 74.9041 138.388L82.88 136.699L79.1412 132.36C79.1412 132.36 78.7552 132.105 78.1937 131.945C76.6331 133.76 75.4924 135.815 75.0406 137.128C74.8969 137.551 74.8492 137.964 74.9034 138.368Z" fill="#F77CA0"/>
<path d="M82.8801 136.7L83.6565 141.967C84.3147 141.945 85.014 141.908 85.7525 141.836C88.2508 141.603 90.0183 140.879 91.1963 139.962L85.7865 135.76L82.8801 136.7Z" fill="url(#paint20_linear_290_1892)"/>
<path d="M51.9654 49.2135C48.0829 49.9984 47.1661 50.9151 46.3806 54.7983C46.3336 55.0314 46.0026 55.0314 45.9555 54.7983C45.1707 50.9158 44.2539 49.999 40.3708 49.2135C40.1376 49.1665 40.1376 48.8354 40.3708 48.7884C44.2533 48.0036 45.17 47.0868 45.9555 43.2036C46.0026 42.9705 46.3336 42.9705 46.3806 43.2036C47.1655 47.0862 48.0822 48.0029 51.9654 48.7884C52.1985 48.8348 52.1985 49.1658 51.9654 49.2135Z" fill="white"/>
<path d="M135.795 180.095C131.912 180.879 130.996 181.796 130.21 185.679C130.163 185.912 129.832 185.912 129.785 185.679C128.999 181.797 128.083 180.88 124.2 180.095C123.967 180.048 123.967 179.717 124.2 179.67C128.083 178.885 128.999 177.968 129.785 174.085C129.832 173.852 130.163 173.852 130.21 174.085C130.996 177.967 131.912 178.884 135.795 179.67C136.028 179.716 136.028 180.048 135.795 180.095Z" fill="white"/>
<path d="M172.071 146.134C168.189 146.919 167.272 147.836 166.487 151.719C166.44 151.952 166.109 151.952 166.062 151.719C165.276 147.836 164.36 146.92 160.477 146.134C160.244 146.087 160.244 145.756 160.477 145.709C164.359 144.924 165.276 144.007 166.062 140.125C166.109 139.892 166.44 139.892 166.487 140.125C167.272 144.007 168.188 144.924 172.071 145.709C172.304 145.756 172.304 146.087 172.071 146.134Z" fill="white"/>
<path d="M56.0054 58.6505C53.6965 59.1173 53.1513 59.6626 52.6844 61.9708C52.6564 62.1092 52.4598 62.1092 52.4317 61.9708C51.9649 59.6619 51.4197 59.1173 49.1108 58.6505C48.9724 58.6224 48.9724 58.4252 49.1108 58.3978C51.4197 57.9309 51.9649 57.3857 52.4317 55.0775C52.4598 54.939 52.6564 54.939 52.6844 55.0775C53.1513 57.3863 53.6965 57.9309 56.0054 58.3978C56.1438 58.4258 56.1438 58.6224 56.0054 58.6505Z" fill="white"/>
<path d="M179.244 136.827C176.935 137.294 176.39 137.839 175.923 140.148C175.895 140.286 175.699 140.286 175.671 140.148C175.204 137.839 174.658 137.294 172.35 136.827C172.211 136.799 172.211 136.602 172.35 136.574C174.658 136.107 175.203 135.562 175.671 133.253C175.699 133.115 175.895 133.115 175.923 133.253C176.39 135.562 176.935 136.107 179.244 136.574C179.383 136.602 179.383 136.799 179.244 136.827Z" fill="white"/>
<path d="M68.959 99.2301C66.6502 99.6969 66.1056 100.242 65.6381 102.551C65.61 102.689 65.4134 102.689 65.3854 102.551C64.9185 100.242 64.3733 99.6969 62.0644 99.2301C61.926 99.202 61.926 99.0054 62.0644 98.9774C64.3733 98.5105 64.9185 97.9653 65.3854 95.657C65.4134 95.5186 65.61 95.5186 65.6381 95.657C66.1049 97.9659 66.6502 98.5105 68.959 98.9774C69.0975 99.0048 69.0975 99.202 68.959 99.2301Z" fill="white"/>
<path d="M220.138 164.194C217.83 164.66 217.284 165.206 216.817 167.515C216.789 167.653 216.593 167.653 216.565 167.515C216.098 165.206 215.553 164.66 213.244 164.194C213.105 164.166 213.105 163.969 213.244 163.941C215.553 163.474 216.098 162.929 216.565 160.62C216.593 160.482 216.789 160.482 216.817 160.62C217.284 162.929 217.83 163.474 220.138 163.941C220.277 163.969 220.277 164.166 220.138 164.194Z" fill="white"/>
<defs>
<linearGradient id="paint0_linear_290_1892" x1="213.339" y1="19.6903" x2="224.365" y2="32.7097" gradientUnits="userSpaceOnUse">
<stop stop-color="#F7437A"/>
<stop offset="1" stop-color="#D12567"/>
</linearGradient>
<linearGradient id="paint1_linear_290_1892" x1="216.545" y1="95.7716" x2="213.198" y2="68.2357" gradientUnits="userSpaceOnUse">
<stop stop-color="#F7437A"/>
<stop offset="1" stop-color="#D12567"/>
</linearGradient>
<linearGradient id="paint2_linear_290_1892" x1="251.409" y1="116.501" x2="215.851" y2="49.9943" gradientUnits="userSpaceOnUse">
<stop stop-color="#F7437A"/>
<stop offset="1" stop-color="#D12567"/>
</linearGradient>
<linearGradient id="paint3_linear_290_1892" x1="244.161" y1="15.5628" x2="241.103" y2="62.0765" gradientUnits="userSpaceOnUse">
<stop stop-color="#F7437A"/>
<stop offset="1" stop-color="#D12567"/>
</linearGradient>
<linearGradient id="paint4_linear_290_1892" x1="197.737" y1="2.6588" x2="223.488" y2="52.8743" gradientUnits="userSpaceOnUse">
<stop stop-color="#F7437A"/>
<stop offset="1" stop-color="#D12567"/>
</linearGradient>
<linearGradient id="paint5_linear_290_1892" x1="84.9521" y1="141.081" x2="89.4586" y2="161.039" gradientUnits="userSpaceOnUse">
<stop stop-color="#F7437A"/>
<stop offset="1" stop-color="#D12567"/>
</linearGradient>
<linearGradient id="paint6_linear_290_1892" x1="89.2809" y1="140.136" x2="73.6681" y2="157.994" gradientUnits="userSpaceOnUse">
<stop stop-color="white"/>
<stop offset="1" stop-color="#F77CA0"/>
</linearGradient>
<linearGradient id="paint7_linear_290_1892" x1="196.974" y1="97.6395" x2="174.119" y2="74.9462" gradientUnits="userSpaceOnUse">
<stop stop-color="white"/>
<stop offset="1" stop-color="#F77CA0"/>
</linearGradient>
<linearGradient id="paint8_linear_290_1892" x1="68.0444" y1="108.442" x2="142.692" y2="151.618" gradientUnits="userSpaceOnUse">
<stop stop-color="white"/>
<stop offset="1" stop-color="#F77CA0"/>
</linearGradient>
<linearGradient id="paint9_linear_290_1892" x1="251.402" y1="52.031" x2="205.289" y2="47.9961" gradientUnits="userSpaceOnUse">
<stop stop-color="white"/>
<stop offset="1" stop-color="#F77CA0"/>
</linearGradient>
<linearGradient id="paint10_linear_290_1892" x1="151.241" y1="86.7039" x2="162.508" y2="158.486" gradientUnits="userSpaceOnUse">
<stop stop-color="#F7437A"/>
<stop offset="1" stop-color="#D12567"/>
</linearGradient>
<linearGradient id="paint11_linear_290_1892" x1="232.726" y1="131.598" x2="189.806" y2="124.302" gradientUnits="userSpaceOnUse">
<stop stop-color="white"/>
<stop offset="1" stop-color="#F7437A"/>
</linearGradient>
<linearGradient id="paint12_linear_290_1892" x1="23.9356" y1="150.669" x2="82.9494" y2="180.497" gradientUnits="userSpaceOnUse">
<stop stop-color="white"/>
<stop offset="1" stop-color="#F7437A"/>
</linearGradient>
<linearGradient id="paint13_linear_290_1892" x1="149.688" y1="190.429" x2="129.731" y2="172.564" gradientUnits="userSpaceOnUse">
<stop stop-color="white"/>
<stop offset="1" stop-color="#F7437A"/>
</linearGradient>
<linearGradient id="paint14_linear_290_1892" x1="56.9439" y1="153.653" x2="73.2532" y2="154.941" gradientUnits="userSpaceOnUse">
<stop stop-color="#F7437A"/>
<stop offset="1" stop-color="#D12567"/>
</linearGradient>
<linearGradient id="paint15_linear_290_1892" x1="73.6997" y1="157.769" x2="46.8752" y2="145.108" gradientUnits="userSpaceOnUse">
<stop stop-color="#F7437A"/>
<stop offset="1" stop-color="#D12567"/>
</linearGradient>
<linearGradient id="paint16_linear_290_1892" x1="84.0043" y1="137.308" x2="83.3633" y2="146.008" gradientUnits="userSpaceOnUse">
<stop stop-color="#F7437A"/>
<stop offset="1" stop-color="#D12567"/>
</linearGradient>
<linearGradient id="paint17_linear_290_1892" x1="78.4646" y1="132.106" x2="80.0208" y2="142.952" gradientUnits="userSpaceOnUse">
<stop stop-color="#F7437A"/>
<stop offset="1" stop-color="#D12567"/>
</linearGradient>
<linearGradient id="paint18_linear_290_1892" x1="88.4939" y1="118.607" x2="84.7572" y2="136.51" gradientUnits="userSpaceOnUse">
<stop stop-color="#F7437A"/>
<stop offset="1" stop-color="#D12567"/>
</linearGradient>
<linearGradient id="paint19_linear_290_1892" x1="81.5222" y1="125.946" x2="81.8524" y2="146.529" gradientUnits="userSpaceOnUse">
<stop stop-color="#F7437A"/>
<stop offset="1" stop-color="#D12567"/>
</linearGradient>
<linearGradient id="paint20_linear_290_1892" x1="86.8122" y1="135" x2="87.639" y2="147.158" gradientUnits="userSpaceOnUse">
<stop stop-color="#F7437A"/>
<stop offset="1" stop-color="#D12567"/>
</linearGradient>
</defs>
</svg>
