<svg width="188" height="233" viewBox="0 0 188 233" fill="none" xmlns="http://www.w3.org/2000/svg">
<path d="M163.409 203.573C163.139 202.469 162.777 201.341 162.29 200.363C162.29 200.366 162.289 200.368 162.289 200.371C160.285 195.81 156.492 191.615 150.224 191.615C150.213 191.615 150.203 191.615 150.191 191.615C150.185 191.615 150.179 191.615 150.172 191.615C142.595 191.615 140.592 196.427 140.592 196.427C142.64 197.112 143.432 201.797 135.645 201.797C127.854 201.797 112.886 191.615 102.703 191.615C89.1067 191.615 85.5742 198.309 85.345 198.775C85.331 198.764 85.317 198.755 85.3035 198.745C84.9728 198.096 81.3405 191.615 67.9621 191.615C57.7796 191.615 42.8072 201.797 35.019 201.797C27.2312 201.797 28.0243 197.112 30.073 196.427C30.073 196.427 30.0707 196.422 30.0694 196.418C30.1023 196.423 30.1258 196.427 30.1258 196.427C30.1258 196.427 28.1227 191.615 20.5447 191.615C20.5384 191.615 20.532 191.615 20.5253 191.615C20.514 191.615 20.5032 191.615 20.4919 191.615C14.6075 191.615 10.9049 195.314 8.81608 199.541C8.80976 199.506 8.80298 199.473 8.79666 199.439C8.62703 199.838 8.47454 200.22 8.33017 200.594C7.53885 202.454 7.04304 204.362 6.79581 206.064C6.7922 206.087 6.78859 206.11 6.78498 206.133C6.78228 206.151 6.78003 206.168 6.77777 206.186C6.60633 207.346 6.60498 208.123 6.60498 208.516C6.60498 214.208 11.8401 232.198 36.4306 232.198C36.4392 232.198 36.4478 232.198 36.4563 232.198C36.4654 232.198 36.4739 232.198 36.483 232.198C61.0635 232.198 64.6064 213.769 85.3576 213.754C106.109 213.769 109.653 232.198 134.234 232.198C134.244 232.198 134.253 232.198 134.262 232.198C134.271 232.198 134.279 232.198 134.288 232.198C158.876 232.198 164.113 214.208 164.113 208.516C164.113 207.119 163.891 205.387 163.409 203.573Z" fill="#94AE98"/>
<path d="M50.235 128.485C50.4304 129.739 49.769 130.881 48.8094 131.149C41.5377 133.139 37.6921 138.178 36.5872 145.636C36.4392 146.621 35.3827 147.413 34.1167 147.374C32.8508 147.333 31.8614 146.237 32.0518 144.962C33.4219 135.708 38.5736 129.195 47.5958 126.726C48.8378 126.386 50.0451 127.233 50.235 128.485Z" fill="white"/>
<path d="M117.767 128.485C117.958 129.739 117.3 130.881 116.34 131.149C109.069 133.139 105.225 138.178 104.118 145.636C103.97 146.621 102.912 147.413 101.647 147.374C100.382 147.333 99.3921 146.237 99.5825 144.962C100.953 135.708 106.103 129.195 115.125 126.726C116.368 126.386 117.576 127.233 117.767 128.485Z" fill="white"/>
<path d="M146.875 137.013C146.462 137.013 146.07 137.097 145.697 137.223C142.253 125.764 131.628 117.414 119.049 117.414C106.894 117.414 96.5634 125.208 92.7728 136.073C85.9162 134.101 79.1503 135.688 77.7314 136.067C73.9408 125.209 63.6108 117.414 51.4586 117.414C44.4806 117.414 38.1063 119.987 33.2239 124.231C33.2212 124.194 33.2203 124.168 33.2203 124.168C33.2203 124.168 27.2385 129.235 24.7409 137.209C24.3822 137.093 24.0069 137.013 23.6099 137.013C21.5833 137.013 19.9402 138.655 19.9402 140.682V142.664C19.9402 144.69 21.5833 146.332 23.6099 146.332C23.6482 146.332 23.6834 146.321 23.7217 146.321C24.8668 166.789 41.508 173.072 51.4586 173.072C65.1357 173.072 76.5002 163.202 78.8376 150.199L78.8417 150.221C78.8417 150.221 78.8417 150.205 78.8417 150.181C79.042 149.065 79.1796 147.928 79.245 146.77C79.8532 143.745 81.3808 139.831 85.2223 139.831C89.2425 139.831 90.7115 143.665 91.2515 146.535C91.2998 147.575 91.4036 148.6 91.5601 149.606C91.5601 149.608 91.5601 149.614 91.5601 149.614L91.561 149.609C93.6575 162.904 105.163 173.072 119.048 173.072C134.053 173.072 146.279 161.194 146.848 146.33C146.858 146.33 146.868 146.333 146.875 146.333C148.902 146.333 150.546 144.691 150.546 142.664V140.682C150.547 138.655 148.902 137.013 146.875 137.013ZM51.2668 167.927C38.7392 167.927 28.5834 157.772 28.5834 145.245C28.5834 132.716 38.7397 122.561 51.2668 122.561C63.7949 122.561 73.9508 132.716 73.9508 145.245C73.9503 157.772 63.7949 167.927 51.2668 167.927ZM119.049 167.651C106.671 167.651 96.641 157.619 96.641 145.245C96.641 132.868 106.671 122.835 119.049 122.835C131.425 122.835 141.453 132.868 141.453 145.245C141.454 157.619 131.425 167.651 119.049 167.651Z" fill="#94AE98"/>
<path d="M187.272 41.9538C187.264 41.707 187.253 41.4633 187.243 41.2188C187.218 40.6436 187.186 40.0751 187.147 39.5139C187.131 39.2748 187.117 39.0339 187.098 38.797C187.039 38.0535 186.97 37.32 186.888 36.6013C186.869 36.4443 186.846 36.2918 186.828 36.1357C186.754 35.5415 186.674 34.9555 186.585 34.378C186.551 34.1588 186.516 33.9409 186.48 33.7234C186.38 33.1184 186.271 32.522 186.154 31.9359C186.133 31.8322 186.114 31.7261 186.093 31.6228C185.943 30.8978 185.779 30.1886 185.603 29.492C185.583 29.4149 185.562 29.3386 185.542 29.2619C185.377 28.6195 185.2 27.9902 185.013 27.3721C184.988 27.2877 184.963 27.2024 184.937 27.1185C176.391 -0.58851 146.559 -3.85487 124.715 5.78941C124.715 5.78941 132.602 29.2597 114.077 29.2597C103.451 29.2597 101.153 13.3151 80.3412 13.3151C51.5514 13.3151 47.1446 36.8363 47.1446 36.8363C47.1446 24.5131 -5.26844 13.6941 0.713833 79.047C1.84442 91.3941 5.94314 101.464 5.94314 101.464C5.94314 101.464 10.0197 101.464 12.8439 92.5342C20.5469 66.8682 41.8386 58.6865 47.145 67.3951C58.4319 59.6326 67.1554 59.7607 75.3935 63.3641C78.4216 64.6977 81.3929 66.496 84.4056 68.542C93.2848 74.5969 102.496 82.8394 114.712 87.5914C120.606 89.9072 127.192 91.3941 134.775 91.3941C134.815 91.3941 134.854 91.3932 134.894 91.3932C134.936 91.3932 134.977 91.3941 135.019 91.3941C166.841 91.3941 187.317 73.1428 187.317 44.3773C187.316 43.5544 187.299 42.7496 187.272 41.9538Z" fill="#94AE98"/>
</svg>
