<svg width="75" height="75" viewBox="0 0 75 75" fill="none" xmlns="http://www.w3.org/2000/svg">
<path d="M37.2822 74.5622C30.7563 74.5622 24.356 72.8362 18.6872 69.5584L4.16182 74.5622L7.14727 59.1814C2.46711 52.7676 0 45.2229 0 37.2816C0 16.7244 16.7244 0 37.2816 0C57.841 0 74.5638 16.7239 74.5638 37.2816C74.5644 57.8383 57.8415 74.5622 37.2822 74.5622Z" fill="#94AE98"/>
<path d="M37.2821 61.6378C33.0194 61.6378 28.8377 60.5095 25.1349 58.3676L15.6456 61.6378L17.5949 51.5888C14.5383 47.3983 12.9266 42.4706 12.9266 37.2813C12.9266 23.8514 23.8522 12.9258 37.2821 12.9258C50.7131 12.9258 61.6387 23.8514 61.6387 37.2813C61.6387 50.7117 50.7126 61.6378 37.2821 61.6378ZM25.5723 54.3843L26.3064 54.8439C29.6138 56.9172 33.41 58.0138 37.2821 58.0138C48.7153 58.0138 58.0157 48.7133 58.0157 37.2813C58.0157 25.8498 48.7158 16.5498 37.2821 16.5498C25.8506 16.5498 16.5507 25.8503 16.5507 37.2813C16.5507 41.9323 18.0744 46.3395 20.9542 50.0251L21.4633 50.6761L20.3975 56.167L25.5723 54.3843Z" fill="white"/>
<path d="M24.9866 27.9234C24.9866 27.9234 26.4165 25.4256 27.581 25.2832C28.746 25.1397 30.246 25.1397 30.65 25.9013C31.0551 26.6624 32.8625 31.0885 32.8625 31.0885C32.8625 31.0885 33.1727 31.8495 32.6969 32.5874C32.2212 33.3247 31.1505 34.3954 31.1505 34.3954C31.1505 34.3954 30.5556 35.1564 31.1505 35.966C31.7455 36.774 32.6678 38.2616 34.5772 40.1683C36.4828 42.0766 40.1436 43.4369 40.1436 43.4369C40.1436 43.4369 40.6673 43.5076 41.0012 43.1748C41.3334 42.842 43.1425 40.5815 43.1425 40.5815C43.1425 40.5815 43.7228 39.8328 44.6878 40.2724C45.6511 40.7126 49.8264 42.7945 49.8264 42.7945C49.8264 42.7945 50.3151 42.9725 50.3151 43.7099C50.3151 44.4472 50.0168 46.2519 49.4063 46.862C48.7957 47.4731 47.012 49.3539 44.3307 49.3539C41.65 49.3539 35.2655 47.1721 31.8631 43.7703C28.4612 40.3674 25.4402 36.917 24.7271 33.7778C24.0125 30.636 24.1079 29.2169 24.9866 27.9234Z" fill="white"/>
</svg>
